# xmcd
#
# Track frame offsets:
#	150
#	22515
#	37450
#	58663
#	79923
#	103833
#	137770
#	155295
#	172845
#	200408
#
# Disc length: 2795 seconds
# Revision: 0
# Processed by: cddbd v1.5.2PL0 Copyright (c) Steve Scherf et al.
# Submitted via: dBpowerAMP V12.0
#
DISCID=7d0ae90a
DTITLE=Osee Anderson - Old School Nu School
DYEAR=1992
DGENRE=Blues
TTITLE0=How Long (Will This Pain Last)
TTITLE1=Not To Worry
TTITLE2=Paycheck To Paycheck
TTITLE3=10 O'Clock News Bleuz
TTITLE4=Long Distance Lover
TTITLE5=Blooze For Pops
TTITLE6=Can't Miss What You Never Had
TTITLE7=I Smell Trouble
TTITLE8=Can't Say No
TTITLE9=Rampart Street Strut
EXTD=
EXTT0=
EXTT1=
EXTT2=
EXTT3=
EXTT4=
EXTT5=
EXTT6=
EXTT7=
EXTT8=
EXTT9=
PLAYORDER=
